<svg xmlns="http://www.w3.org/2000/svg" width="16" height="16" viewBox="0 0 16 16">
	<defs>
		<clipPath id="b">
			<path d="M5.334 2.19l-.762 1.144H.762L0 4.096V14h16V3.334h-4.572l-.762-1.143zm-4.19.382v.38H4.19v-.38zM12.57 3.715h3.047v1.523H12.57zM8 4.74A4.26 4.26 0 0 1 12.26 9 4.26 4.26 0 0 1 8 13.26 4.26 4.26 0 0 1 3.74 9 4.26 4.26 0 0 1 8 4.74zM8 6a3 3 0 0 0-3 3 3 3 0 0 0 3 3 3 3 0 0 0 3-3 3 3 0 0 0-3-3z" />
		</clipPath>
		<filter id="c">
			<feGaussianBlur stdDeviation=".25"/>
		</filter>
	</defs>
	<path d="M5.334 2.19l-.762 1.144H.762L0 4.096V14h16V3.334h-4.572l-.762-1.143H5.334zm-4.19.382v.38H4.19v-.38H1.144zM12.57 3.715h3.047v1.523H12.57V3.715zM8 4.74A4.26 4.26 0 0 1 12.26 9 4.26 4.26 0 0 1 8 13.26 4.26 4.26 0 0 1 3.74 9 4.26 4.26 0 0 1 8 4.74zM8 6a3 3 0 0 0-3 3 3 3 0 0 0 3 3 3 3 0 0 0 3-3 3 3 0 0 0-3-3z" fill="#6d6d6c" />
	<path d="M5.334 2.19l-.762 1.144H.762L0 4.096V14h16V3.334h-4.572l-.762-1.143H5.334zm-4.19.382v.38H4.19v-.38H1.144zM12.57 3.715h3.047v1.523H12.57V3.715zM8 4.74A4.26 4.26 0 0 1 12.26 9 4.26 4.26 0 0 1 8 13.26 4.26 4.26 0 0 1 3.74 9 4.26 4.26 0 0 1 8 4.74zM8 6a3 3 0 0 0-3 3 3 3 0 0 0 3 3 3 3 0 0 0 3-3 3 3 0 0 0-3-3z" fill="none" stroke-width="1.5" stroke="#000" stroke-opacity=".5" clip-path="url(#b)" filter="url(#c)"/>
</svg>
