<svg xmlns="http://www.w3.org/2000/svg" width="216" height="24" viewBox="0 0 216 24">
	<path fill="#1f364c" d="M3 3h18v18H3z" style="filter: blur(1px)"/>
	<path fill="#fff" d="M3 3h18v18H3zm10 1l.055 3L9 11H6l2.969 2.969-4.5 4.5L5.53 19.53l4.5-4.5L13 18v-3l4-4.055L20 11z"/>
	<path fill="#1f364c" d="M75 3h18v18H75z" style="filter: blur(1px)"/>
	<path fill="#fff" d="M75 3v18h18V3H75zm4 1h10l-2 2v6l2 2h-4.25v6h-1.5v-6H79l2-2V6l-2-2z"/>
	<path fill="#1f364c" d="M147 3h18v18h-18z" style="filter: blur(1px)"/>
	<path fill="#fff" d="M147 3h18v18h-18zm3.707 2.293l-1.414 1.414L154.586 12l-5.293 5.293 1.414 1.414L156 13.414l5.293 5.293 1.414-1.414L157.414 12l5.293-5.293-1.414-1.414L156 10.586z"/>
</svg>
