<svg xmlns="http://www.w3.org/2000/svg" xmlns:xlink="http://www.w3.org/1999/xlink" width="72" height="24">
	<defs>
		<path id="a" d="M13 4l.055 3L9 11H6l2.969 2.969-4.5 4.5L5.53 19.53l4.5-4.5L13 18v-3l4-4.055L20 11zm18 0h10l-2 2v6l2 2h-4.25v6h-1.5v-6H31l2-2V6zm23.707 1.293l-1.414 1.414L58.586 12l-5.293 5.293 1.414 1.414L60 13.414l5.293 5.293 1.414-1.414L61.414 12l5.293-5.293-1.414-1.414L60 10.586z"/>
	</defs>
	<use fill="#fff" stroke="#fff" stroke-width="2" filter="blur(1px)" xlink:href="#a"/>
	<use fill="#1f364c" xlink:href="#a"/>
</svg>
