<svg xmlns="http://www.w3.org/2000/svg" width="48" height="48" viewBox="0 0 48 48">
	<defs>
		<radialGradient id="a" r="33" cx="24" cy="38.071" gradientTransform="scale(1 .591)" gradientUnits="userSpaceOnUse">
			<stop offset="0" stop-color="#fff"/>
			<stop offset=".795" stop-color="#fff"/>
			<stop offset="1" stop-color="#fff" stop-opacity="0"/>
		</radialGradient>
		<mask id="b" maskUnits="userSpaceOnUse">
			<g stroke-linejoin="round">
				<path style="solid-opacity:1" fill="url(#a)" stroke-width=".75" d="M0 8h48v34H0z"/>
				<path style="solid-opacity:1" fill="#fff" stroke-width=".546" d="M0 8h48v18H0z"/>
			</g>
		</mask>
		<clipPath id="c">
			<path fill="#fff" d="M0 5h48v37H0z"/>
		</clipPath>
		<radialGradient id="d" r="22.5" cx="24" cy="32" gradientUnits="userSpaceOnUse">
			<stop offset="0" stop-color="#b8b8b8"/>
			<stop offset=".885" stop-color="#dcdcdc"/>
			<stop offset=".923" stop-color="#e7e7e7"/>
			<stop offset="1" stop-color="#fff"/>
		</radialGradient>
		<clipPath id="e">
			<path fill="#fff" d="M0 5h48v37H0z"/>
		</clipPath>
		<linearGradient id="f" x1="24" y1="42" x2="24" y2="12.556" gradientUnits="userSpaceOnUse">
			<stop offset="0" stop-color="#ccc"/>
			<stop offset="1" stop-color="#ccc" stop-opacity="0"/>
		</linearGradient>
	</defs>
	<g mask="url(#b)">
		<path d="M-3 33.37c3.97-.148 7.953-1.35 9.58-6.096 1.712-4.99 2.367-9.493 4.355-13.326 2.26-4.355 7.84-4.964 13.065-4.964 5.226 0 10.806.61 13.065 4.964 1.988 3.833 2.643 8.337 4.354 13.326 1.624 4.745 5.61 5.948 9.58 6.097v9.15H-3z" clip-path="url(#c)" fill="url(#d)" stroke="#595959" stroke-width=".871"/>
		<path clip-path="url(#e)" d="M-3 33.37c3.97-.148 7.953-1.35 9.58-6.096 1.712-4.99 2.367-9.493 4.355-13.326 2.26-4.355 7.84-4.964 13.065-4.964 5.226 0 10.806.61 13.065 4.964 1.988 3.833 2.643 8.337 4.354 13.326 1.624 4.745 5.61 5.948 9.58 6.097v9.15H-3z" fill="url(#f)"/>
	</g>
	<path d="M29.942 24.7l1.873.007c.995.005 1.026.004 1.004-.034-.016-.02-.44-.037-.95-.037-.515 0-1.39-.003-1.96-.005-1.13 0-1.356.007-1.282.045.03.014.62.027 1.31.03zm-1.294-1.575c.394-.004 1.737-.003 2.983 0 1.25.004 2.27-.007 2.278-.025.01-.035-.332-.05-1.062-.046-.258.002-1.12 0-1.913-.003H28.37c-.436 0-.815.01-.84.028-.07.04.28.057 1.12.05zm-1.653-.9c.106.017.475.02 3.148.023 1.174 0 2.497.004 2.94.007.443.002.95.003 1.13.002.695-.005 1.083.21 1.366.763.27.53.242 1.245-.065 1.72-.156.242-.057.2.11-.048.515-.76.326-1.976-.376-2.41-.357-.22-.186-.212-3.973-.217-1.25-.002-2.718-.006-3.26-.01-.544-.003-1.032.005-1.085.017-.114.028-.073.134.06.154zm-.124 1.468c.08.017.53.03 1.005.03.472-.002 1.245 0 1.72.003 2.266.015 4.8.006 4.96-.017.21-.035.274-.14.13-.218-.073-.038-.317-.062-.526-.065l-1.417-.007-2.895-.006-2.31-.007c-.337 0-.696.022-.766.064-.14.085-.095.176.103.22zM25.32 22.66c.105.06.306.11.462.12.237.01.31-.008.526-.138.313-.19.395-.32.12-.195-.38.173-.888.157-1.293-.04l-.23-.113.115.125c.063.07.198.174.3.235zm-.06.763c.155.08.404.16.445.14.02.006.118-.005.2-.037.09-.038.245-.07.33-.122.142-.09.144-.094.024-.076-.43.064-.605.065-.886.005-.333-.07-.366-.046-.11.088zm-.89-1.2c.346.003.412-.013.414-.103 0-.046-.743-.107-.812-.066-.012.008-.003.048.022.09.027.048.162.076.373.08zm.234 1.466c.16-.057.206-.15.114-.22-.033-.027-.19-.055-.35-.064-.348-.01-.68-.024-.686.176-.013.107 0 .118.135.135zm-11.136.336c.933.11 1.016.11 1.594.003.604-.11.787-.115 3.665-.098.726.005.797.003.706-.023-.06-.018-2.066-.036-3.03-.028-.526.004-.535-.023-.036-.105.684-.113.86-.12 2.476-.113l4.3.01c.303.004.267.04.265-.153l-.003-.16-1.952-.01c-5.218.01-5.736 0-6.38-.12-.585-.11-.676-.11-1.574-.013-.524.058-.968.11-.986.113-.033.01-.07.495-.042.555.008.016.457.082.998.145zm-1.28-.348c.003-.246.005-.48.004-.518 0-.054.277-.107 1.13-.214l1.13-.143.643.15c.64.15.67.152 4.487.157 2.112.003 3.842-.005 3.843-.017v-.64c0-.338.02-.64.043-.672.025-.03.354-.057.733-.06.72 0 .744.007 1.057.316.186.186.45.276.66.23.093-.022.342-.15.56-.29l.392-.254 2.553.01c1.405.006 3.177.01 3.94.01.76 0 1.497.016 1.636.035.15.02.354.1.506.2.222.143.283.21.475.53.258.43.33.716.316 1.21-.022.694-.285 1.277-.716 1.592-.312.227-.562.283-1.28.285-1.63.002-7.293-.02-7.426-.03-.09-.008-.212-.07-.312-.166-.392-.37-.902-.473-1.19-.238-.53.435-.444.406-1.185.41-.512.002-.688-.018-.726-.08-.026-.046-.05-.355-.047-.687 0-.497-.014-.608-.083-.623-.046-.01-.52-.016-1.053-.015-.895 0-1.815 0-5.266-.01-1.165-.003-1.37.012-1.936.14l-.634.143-1.1-.144c-.604-.078-1.11-.15-1.126-.158-.015-.01-.026-.217-.024-.46zm12.498-12.14c-.045-.005-.082 0-.1.02-.042.044-.028.118.064.34.048.114.195.483.327.82.13.34.26.66.283.716.06.134.06.26.006.365-.058.113-.545.67-.643.734-.04.026-.22.102-.406.17-.657.242-1.957.742-2.44.938-.033.014-.152.06-.263.102-.235.09-.273.115-.3.186-.036.086-.01.153.164.434.548.887.906 1.592 1.162 2.294.258.707.345 1.143.4 2.022.023.36.028.395.02 1.08.003-.02.006-.038.012-.063.008-.038-.013-.07.1-.215 0-.002.076-.08.106-.103.03-.02.054-.038.074-.048.04-.02.067-.028.09-.035-.01-1.32-.064-1.713-.188-2.544-.03-.197.09.287.15.598.11.59.16 1.183.176 2.1 0 .038-.002-.225 0-.185.056-.01.113-.014.178-.02.15-.012.337-.018.537-.02.19 0 .337-.002.47.005 0-.52.007-.294.02-.616.064-1.252.25-2.19.516-2.554.037-.054.03-.01-.054.258-.18.588-.253 1.03-.3 1.797-.027.404-.033.47-.033 1.14.07.01.14.01.21.032.04.012.067.04.104.054 0-.06-.01-.523-.008-.576.024-1.145.14-1.552.368-2.155.2-.53.517-1.12 1.303-2.426.446-.74.568-1.046.608-1.528.036-.425-.13-.88-.498-1.36-.155-.202-.523-.575-.77-.778-.377-.315-1.07-.81-1.304-.933-.05-.026-.1-.042-.143-.047zm-2.28 1.01c-.13.085-.3.426-.463.942-.174.553-.255 1.16-.25 1.83.004.133.01.246.016.252.007.007.178-.05.38-.13l.364-.14s.1-.047.12-.048c.08-.023 1.27-.484 1.27-.492 0-.005-.107-.04-.24-.078l-.24-.07-.05-.126-.05-.127-.03-.07-.34-.85c-.19-.47-.355-.867-.37-.88-.035-.034-.075-.036-.12-.008zm4.434 1.227c.012.018.036.077.066.164.082.24.088.486.016.694-.028.082-.08.2-.113.258-.08.14-.27.338-.434.454-.25.175-.672.367-1.124.51-.398.124-.406.12-.05-.034 1.052-.453 1.42-.758 1.61-1.34.047-.147.06-.226.062-.365 0-.098-.01-.214-.024-.26-.02-.073-.02-.096-.008-.078zm-2.54 2.067c.043.008.058.036.29.588.364.865.35.828.326.87-.015.025-.252.133-.848.386-.455.192-.84.35-.855.35-.02 0-.043-.01-.057-.024-.013-.014-.154-.334-.312-.71-.22-.528-.282-.696-.272-.726.012-.032.156-.098.848-.39.612-.26.844-.35.88-.344zm-.19.18c.002-.03-.01-.028-.06.003-.028.017-.038.03-.028.04.02.018.09-.016.09-.044zm0 .052c-.007.006-.023.017-.038.024-.043.02-.006.036.04.017.037-.014.042-.02.027-.035-.01-.01-.024-.012-.03-.006zm.23.018c-.012-.02-.114.025-.113.05 0 .006.107.22.238.47.134.254.247.465.255.47.05.03.022-.06-.16-.49-.113-.265-.21-.49-.217-.5zm-.166.05c0-.02-.054-.005-.08.022-.012.012-.016.025-.01.03.013.014.09-.03.09-.05zm-.418.012c-.02.004-.046.013-.055.022-.024.024.004.04.046.027.052-.017.058-.058.008-.05zm.453.04c-.006-.005-.034 0-.06.015-.055.03-.047.055.01.037.043-.014.065-.035.05-.05zm-.166.013c-.006 0-.04.012-.08.03-.055.026-.07.04-.063.055l.245.47c.13.245.238.452.245.46.014.015.162-.052.156-.07-.01-.033-.496-.95-.503-.948zm-.225.02c-.016-.02-.084.005-.09.03-.006.03 0 .03.053.002.027-.015.043-.03.036-.036zm.418.04c0-.018-.018-.017-.05 0-.057.03-.048.052.01.033.026-.008.04-.02.04-.035zm-.38.015c-.013-.012-.076.005-.096.026-.026.028.012.036.058.01.028-.012.044-.03.038-.035zm-.395.016c0-.02-.073 0-.097.026 0 .003.005.013.014.022.02.02.085-.017.084-.048zm.806.026c-.018-.017-.085.01-.09.035-.003.014.01.017.04.01.053-.017.065-.03.05-.044zm-.383.018c0-.02-.012-.018-.06.01-.023.017-.035.033-.03.04.016.014.09-.03.09-.05zm-.39.02c-.014-.013-.076.017-.09.04.005.007.018.01.04.004.056-.018.07-.028.05-.044zm-.09.04v.002s.005 0 .005-.002zm.33-.033c-.023-.025-.17.034-.157.063l.244.468c.13.248.24.456.246.464.016.018.153-.043.15-.066 0-.02-.46-.9-.484-.928zm.572.016c-.01-.013-.074.003-.094.024-.026.028.012.034.06.01.026-.013.042-.03.036-.034zm-.395.022c-.01-.005-.03-.004-.054.005-.035.014-.04.02-.025.035.01.01.023.013.03.007.005-.007.022-.018.037-.024.02-.01.024-.02.014-.023zm-.373.023c0-.02-.035-.015-.077.008-.02.01-.03.027-.023.033.013.014.102-.02.1-.04zm-.434.006c-.025.01-.05.02-.055.024-.02.02.03.04.06.025.05-.028.047-.065-.004-.05zm1.236.012c.017-.02-.068 0-.086.018-.026.027.004.038.04.016.02-.01.04-.026.046-.033zm-.393.014c-.014-.015-.085.017-.09.04-.003.01.016.012.04.005.055-.017.068-.03.05-.045zm-.42.02c-.02.008-.042.018-.05.025-.022.024.01.033.053.015.053-.02.05-.056-.003-.04zm-.35.02c-.014-.013-.094.02-.094.04s.065.01.087-.012c.01-.01.012-.022.006-.027zm1.185.005c-.01-.004-.03-.004-.052.006-.036.014-.04.02-.026.035.01.01.022.013.028.007.006-.008.022-.018.037-.025.02-.01.024-.02.014-.023zm-.95.002c-.02-.025-.168.034-.155.06l.243.47c.128.247.24.455.246.463.015.018.15-.044.15-.07 0-.02-.46-.897-.486-.924zm.58.022c0-.02-.04-.015-.08.008-.02.01-.03.025-.024.03.016.015.106-.02.105-.038zm-.4.02c0-.018-.05-.01-.073.013-.007.01-.01.02-.003.025.013.014.075-.018.075-.04zm-.378.01c-.01-.007-.088.017-.103.033-.02.02.027.025.062.01.05-.026.053-.03.04-.043zm1.186 0c-.016-.014-.087.016-.092.04-.003.022.028.02.07-.005.024-.012.03-.025.024-.033zm-.422.02c-.02.007-.04.02-.047.026-.023.025.007.034.05.017.053-.022.05-.06 0-.042zm-1.145.003c-.007-.024-.005-.025-.067 0v.003c-.04.017-.045.023-.03.036.02.02.102-.013.095-.04zm.794.02c-.016-.015-.096.02-.096.037 0 .02.07.01.09-.013.01-.01.01-.02.004-.027zm-.54.026c-.013-.01-.144.058-.143.075 0 .013.105.224.233.472.125.247.236.458.244.466.012.013.16-.033.162-.05 0-.006-.49-.955-.5-.96zm.157 0c.006-.02-.025-.02-.07.007-.02.012-.03.025-.02.033.015.015.086-.015.09-.04zm1.197 0c0-.02-.04-.015-.08.01-.02.01-.03.024-.024.03.012.013.102-.02.102-.04zm-1.612.007c-.003.005-.023.02-.043.033-.035.023-.035.024.006.02.048-.007.08-.032.06-.05-.006-.006-.016-.008-.02-.003zm1.21.013c0-.018-.05-.008-.07.014-.01.007-.01.02-.003.026.014.014.077-.02.076-.04zm-.374.012c-.01-.01-.087.016-.102.03-.02.02.027.028.062.01.052-.024.054-.027.04-.04zm.765.02c-.02.006-.043.018-.05.025-.023.024.007.033.05.016.053-.022.05-.06 0-.043zm-1.148.003c-.003-.014-.074.006-.095.03-.003.002-.002.01.004.014.018.016.1-.02.09-.044zm-.414.013c-.006.006-.025.02-.046.034-.035.024-.035.025.006.02.048-.006.08-.033.06-.05-.006-.007-.016-.008-.02-.003zm1.21.01c-.014-.013-.096.02-.095.04 0 .02.03.014.072-.01.02-.01.03-.023.023-.03zm-.383.03c.006-.02-.026-.02-.07.004-.02.012-.03.025-.02.033.014.015.085-.015.09-.04zm-.392.01c-.013-.015-.055.004-.082.033-.015.02-.012.02.02.015.05-.007.08-.033.064-.05zm1.19.01c0-.02-.053-.01-.075.01-.008.01-.01.02-.004.028.014.013.08-.02.077-.04zm-.378.01c-.01-.01-.09.015-.105.03-.02.02.027.027.062.01.052-.024.057-.028.043-.04zm-1.193.005c.004-.016-.073 0-.094.02-.005.005-.003.015.004.02.016.016.084-.016.09-.04zm-.18.008c-.01.01.063.208.188.505.112.267.21.488.22.492.007.003.038-.005.067-.017l.05-.024-.235-.45-.255-.488c-.014-.025-.024-.032-.036-.02zm.99.01c-.003-.014-.076.01-.097.03-.003.003 0 .01.006.014.02.016.1-.022.094-.043zm-1.193.003c-.044.06-.117.1-.296.164-.16.055-.396.113-.375.09.005-.005.09-.043.19-.082l.34-.14c.122-.05.16-.06.14-.034zm.802.016c-.01-.01-.09.012-.105.03-.015.013.023.026.054.015.044-.013.066-.033.05-.046zm1.186 0c-.016-.013-.096.02-.095.04 0 .02.066.01.088-.014.01-.01.01-.02.007-.025zm-1.58.03c-.01-.007-.038 0-.058.01-.026.01-.03.02-.018.025.01.005.036 0 .057-.01.026-.012.03-.02.017-.027zm1.196 0c.005-.02-.025-.02-.07.004-.02.012-.028.025-.02.033.016.015.084-.015.09-.04zm-.393.01c-.012-.015-.054.003-.08.033-.017.018-.014.02.022.013.046-.007.077-.032.06-.048zm.814.02c-.01-.01-.09.015-.107.03-.017.02.028.027.064.01.05-.024.056-.028.043-.04zm-1.195.01c.005-.02-.07-.01-.093.016-.007.004-.006.015 0 .02.02.018.087-.01.092-.034zm.77.008c-.006.004-.023.014-.037.02-.044.02-.006.037.04.02.037-.015.04-.02.026-.036-.01-.01-.023-.012-.03-.006zm-1.15.01c-.013-.015-.076.002-.096.023-.027.028.01.036.057.013.028-.014.044-.03.037-.038zm.8.01c-.01-.01-.09.015-.105.03s.023.025.054.015c.044-.014.065-.033.05-.047zm-.388.03c-.016-.017-.085.01-.09.032-.007.03 0 .03.052.003.027-.014.043-.03.037-.035zm1.193 0c.005-.02-.027-.02-.07.005-.022.012-.03.024-.022.032.016.015.086-.014.092-.038zm-1.604.003c-.004.006-.023.02-.044.035-.036.023-.036.022.005.017.05-.006.08-.03.06-.05-.005-.005-.015-.006-.02 0zm1.21.007c-.013-.014-.054.002-.082.03-.015.02-.013.023.023.017.047-.007.078-.033.06-.05zm-.795.03c-.004.006-.023.02-.042.033-.05.03-.02.044.038.017.04-.017.045-.025.03-.04-.01-.01-.02-.012-.025-.007zm.416 0c.004-.02-.07-.01-.094.015-.006.005-.004.013.003.02.017.016.084-.008.09-.034zm.77.003c-.004.005-.023.02-.042.032-.05.03-.02.044.038.017.04-.02.046-.028.03-.04-.008-.01-.02-.015-.024-.01zm-.353.024c-.007-.006-.03 0-.06.013-.053.03-.046.056.01.038.045-.015.064-.035.05-.05zm-1.194.015c0-.016-.055-.003-.075.017-.01.01-.01.02-.005.027.01.012.077-.024.077-.043zm.806.015c-.016-.017-.085.006-.09.03-.006.03 0 .03.053.003.026-.013.042-.03.036-.034zm-.383.014c0-.02-.015-.017-.062.012-.023.016-.033.03-.026.037.016.013.09-.03.09-.05zm1.186 0c0-.02-.053-.006-.08.02-.01.012-.016.03-.01.033.013.012.09-.035.09-.055zm-1.57.024c.005-.027-.09.01-.098.036-.005.01.016.01.042.002.027-.01.05-.028.053-.04zm1.185 0c.003-.02-.07-.01-.095.015-.005.004-.003.014.004.02.016.017.083-.01.09-.035zm-.415.003c-.005.005-.025.018-.043.03-.052.03-.017.047.04.02.038-.02.044-.028.03-.042-.01-.01-.022-.012-.027-.007zm.834.025c-.007-.007-.035 0-.06.013-.056.028-.05.055.01.036.042-.013.063-.033.05-.05zm-1.247.01c-.04.02-.045.028-.032.04.015.014.065-.004.095-.033.024-.025-.02-.03-.062-.007zm-.33.017c-.005-.008-.025-.008-.055.007-.022.01-.042.022-.045.025-.003.003 0 .01.006.016s.034 0 .06-.013c.03-.015.04-.03.035-.035zm1.187 0c-.016-.016-.085.01-.09.033-.006.03 0 .027.053 0 .027-.013.043-.03.037-.034zm-.383.015c0-.02-.013-.014-.06.015-.024.015-.036.03-.03.037.015.013.09-.03.09-.05zm-.39.025c-.015-.015-.086.015-.09.04-.003.008.015.01.04.003.054-.016.067-.026.05-.042zm1.194.004c.004-.02-.07-.01-.094.014-.007.006-.006.014 0 .02.02.018.086-.01.092-.034zm-.383.016c-.01-.013-.075.004-.095.025-.025.028.013.034.06.01.028-.014.043-.03.037-.035zm-1.18.003c0-.02-.075-.007-.096.015-.01.01-.012.02-.006.027.014.014.102-.023.1-.042zm.79.013c0-.01-.025-.008-.05.005-.04.018-.048.027-.035.04.02.016.085-.02.085-.046zm.805.022c-.016-.017-.085.01-.09.035-.004.017.006.02.033.017.044-.007.075-.033.058-.05zm-1.182.004c0-.018-.073-.006-.094.016-.01.01-.013.02-.007.025.013.015.1-.02.1-.04zm.8.012c0-.02-.014-.017-.06.012-.024.015-.037.032-.03.04.014.012.09-.03.09-.052zm-1.187.002c-.003-.006-.022-.005-.054.006-.05.016-.053.02-.037.037.01.01.036.007.057-.006.028-.018.04-.03.035-.037zm.798.02c-.017-.015-.087.016-.093.04 0 .01.017.01.04.002.057-.016.07-.027.053-.043zm-.423.02c-.02.005-.04.017-.05.024-.02.024.01.033.055.016.053-.02.05-.058-.003-.04zm-.35.022c-.013-.014-.093.018-.092.037 0 .02.027.016.07-.008.02-.01.03-.024.023-.03zm1.187.002c-.01-.004-.03-.003-.052.006-.036.014-.04.02-.025.035.01.01.02.01.027.006.006-.007.023-.017.037-.024.02-.01.022-.02.012-.023zm-.37.024c0-.02-.04-.014-.08.01-.02.01-.03.023-.024.03.014.012.104-.022.104-.04zm-.416.01c-.022.005-.047.014-.056.023-.01.01-.01.02-.006.027.014.014.056-.004.083-.034.018-.017.015-.018-.02-.013zm-.36.023c-.01-.01-.087.015-.104.03-.018.02.026.028.06.01.053-.024.057-.027.044-.04zm1.183 0c-.014-.014-.085.015-.09.037-.006.03.017.035.05.015.05-.03.055-.038.04-.05zm-.42.02c-.02.006-.042.02-.05.025-.022.023.008.032.052.014.052-.02.05-.06-.002-.043zm-.35.02c-.014-.013-.096.02-.095.038 0 .02.03.018.073-.006.02-.01.03-.025.024-.03zm-.384.02c-.005-.013-.076.01-.097.03h-.002c-.002.005 0 .01.007.015.017.016.097-.02.092-.044zm.796.028c0-.018-.05-.01-.07.013-.01.01-.01.023-.006.03.015.013.077-.02.077-.04zm-.376.012c-.01-.01-.09.014-.104.03-.017.02.028.026.064.01.05-.025.054-.03.04-.04zm-.422.016c-.02.007-.042.018-.05.025-.018.025.01.035.052.018.052-.02.05-.058-.002-.04zm.84.03c-.018-.017-.1.008-.1.03 0 .028.017.03.066.006.04-.02.045-.026.033-.038zm-.39.017c-.003-.015-.073.005-.095.027-.003.003 0 .01.006.016.016.016.094-.022.09-.043zm-.39.016c-.013-.015-.056.003-.084.033-.017.017-.013.02.023.012.047-.007.078-.032.06-.048zm.387.037c-.008.007-.025.017-.04.024-.042.02-.005.038.04.02.038-.015.04-.02.027-.035-.01-.01-.023-.013-.03-.006zm-.35.02c-.01-.006-.09.016-.105.03-.015.017.02.03.053.02.04-.015.062-.034.05-.048zm.416.047c-.016-.017-.055-.006-.085.025-.025.026.003.037.05.02.058-.024.06-.027.038-.047zm-.385.027c.006-.02-.067-.007-.092.016-.005.004-.005.014.002.02.016.017.085-.01.09-.035zm.03.06c-.015-.016-.084.01-.09.032-.005.03 0 .03.054.002.026-.014.042-.03.036-.035zm.007.044c-.005.006-.026.02-.045.03-.047.03-.015.055.038.03.023-.01.044-.023.047-.026.01-.01-.03-.042-.04-.033zm.88 4.44l.02.103.026.036c.01-.014.048-.065.062-.095.008-.018.006-.026.012-.04-.046-.003-.057-.004-.12-.005zm-.384.41v.28c.162-.015.317-.016.455-.01h.01c.1.003.196.013.285.03l.015.003v-.156c-.015-.012-.03-.018-.042-.032l-.044-.05c-.044.003-.096.012-.15.01l-.02.007h-.07c-.127-.003-.24-.01-.354-.034-.02-.004-.058-.05-.082-.052zm1.172 1.256c-.085.1-.174.175-.264.225l.008.824c.052-.037.053-.033.215-.165.037-.03.08-.05.12-.076-.005-.367-.005-.514-.01-.78-.022-.01-.044-.017-.067-.028zm-.39.29l-.01.002-.817.027c0 .01.008.025.01.034.02.15.02.305.02.56 0 .094.004.172.007.256.084 0 .128.006.264.006.375-.003.5-.014.51-.017 0 0 .023-.02.025-.02l-.003-.168-.01-.687zm-1.806.49c-.08 3.28-.098 5-.09 6.943 0 1.507.014 1.737.112 1.98.023.055.067.14.1.19.315.47 1.018.657 1.544.406.483-.23.687-.618.696-1.314.01-.896-.01-3.277-.07-6.694-.004-.22 0-.077-.005-.277-.055.03-.102.07-.17.093-.062.02-.117.02-.174.032.003.53.007 1.577.01 1.84l.015 1.64c.007.64.02 1.736.03 2.438.015 1.224.013 1.282-.03 1.406-.186.524-.783.746-1.257.465-.24-.14-.38-.365-.416-.654-.012-.1-.016-1.096-.008-1.77.01-.794.03-1.897.082-4.35.006-.347.002-.767.01-1.082-.086-.04-.183-.1-.256-.22-.12-.2-.077-.207-.086-.267-.01-.06-.014-.122-.02-.193-.01-.14-.015-.31-.015-.487 0-.075-.003-.074-.004-.13h-.003zm.532 1.35c-.074 3.917-.094 5.617-.09 6.32l.002.25.064-.08c.14-.166.39-.28.624-.286.242-.005.51.115.67.3l.08.09v-.183c.005-1.355-.018-3.494-.058-6.38-.154.014-.317.015-.54.016-.264 0-.446 0-.6-.02-.05-.004-.103-.02-.153-.03z" fill="#241c1c"/>
</svg>
