<svg xmlns="http://www.w3.org/2000/svg" xmlns:xlink="http://www.w3.org/1999/xlink" width="24" height="24">
	<defs>
		<path id="a" d="M9.65 4.42l-.246.08-.43 1.611.131.94.221.375-.89.64-.293-.324-.858-.414-1.68-.092-.156.207.61 1.555.662.682.402.175-.34 1.038-.43-.092-.937.164L4 11.869v.26l1.414.904.938.164.43-.092.34 1.038-.4.177-.663.68-.61 1.555.155.209 1.68-.092.859-.414.293-.326.888.64-.219.38-.132.935.43 1.613.247.078 1.305-1.053.45-.834.044-.433h1.102l.045.433.447.836 1.305 1.053.248-.08.43-1.611-.131-.936-.221-.377.889-.64.292.324.862.414 1.68.092.152-.207-.61-1.561-.662-.68-.402-.175.34-1.038.43.092.94-.164L20 12.13v-.26l-1.414-.904-.941-.164-.43.092-.34-1.038.402-.175.662-.682.61-1.555-.153-.207-1.68.092-.86.416-.293.322-.891-.64.223-.377.132-.936-.43-1.615-.25-.078-1.304 1.055-.447.832-.045.435h-1.102l-.045-.435-.449-.834zM12 9.924a2.095 2.076 0 0 1 2.094 2.074A2.095 2.076 0 0 1 12 14.078a2.095 2.076 0 0 1-2.096-2.08A2.095 2.076 0 0 1 12 9.926z"/>
	</defs>
	<use fill="#1f364c" stroke="#1f364c" stroke-width="2" filter="blur(1px)" xlink:href="#a"/>
	<use fill="#fff" xlink:href="#a"/>
</svg>
