<svg xmlns="http://www.w3.org/2000/svg" xmlns:xlink="http://www.w3.org/1999/xlink" viewBox="-1 -1 17 17" height="18" width="18">
	<defs>
		<path id="a" d="M5.65.422l-.246.08-.43 1.61.132.94.22.376-.89.64-.294-.324-.857-.414-1.68-.092-.155.206L2.058 5l.663.682.403.175-.34 1.037-.43-.092-.938.165L0 7.87v.26l1.415.904.937.164.43-.092.34 1.038-.4.177-.664.68-.608 1.556.154.208 1.68-.092.858-.414.293-.325.89.64-.22.378-.132.937.43 1.612.247.078 1.306-1.052.448-.835.046-.432h1.1l.046.433.446.836 1.306 1.052.248-.08.43-1.61-.132-.937-.22-.376.888-.64.294.324.86.414 1.68.092.152-.208L13.94 11l-.663-.68-.402-.176.34-1.038.43.092.94-.164L16 8.13v-.26l-1.415-.903-.94-.165-.43.092-.34-1.037.402-.175L13.94 5l.608-1.556-.152-.206-1.68.092-.86.415-.294.322-.89-.64.222-.376.133-.937L10.597.5l-.25-.078-1.305 1.054-.446.833-.046.435h-1.1l-.046-.436-.448-.834zM8 5.926A2.095 2.076 0 0 1 10.094 8 2.095 2.076 0 0 1 8 10.08 2.095 2.076 0 0 1 5.904 8 2.095 2.076 0 0 1 8 5.927z"/>
	</defs>
	<use xlink:href="#a" fill="#fff" style="filter: blur(1px)" />
	<use xlink:href="#a" fill="#1f364c" />
</svg>
