<svg xmlns="http://www.w3.org/2000/svg" width="16" height="16" viewBox="0 0 16 16">
	<path fill="#1f364c" d="M11.782 9.155l1.243.01c.66.01.681 0 .666-.022-.01-.013-.292-.025-.63-.025h-1.3c-.75 0-.9.01-.852.03.02.01.412.018.87.02zm-.859-1.045h1.98c.83 0 1.506-.01 1.512-.017.006-.023-.22-.033-.705-.031h-2.971c-.29 0-.54.01-.558.019-.046.027.186.038.744.033zm-1.097-.598c.07.011.316.013 2.09.015.779 0 1.657 0 1.95.01h.75c.462-.01.72.14.907.507.18.352.16.826-.043 1.141-.104.16-.038.133.073-.032.342-.504.216-1.311-.25-1.6-.237-.145-.123-.14-2.636-.143-.83 0-1.804-.01-2.164-.01-.36 0-.685 0-.72.01-.075.02-.048.09.04.103zm-.082.975c.053.01.352.02.667.02h1.142c1.503.01 3.185.01 3.291-.011.14-.023.182-.093.086-.145-.048-.025-.21-.041-.349-.043l-.94-.01-1.921-.01-1.533-.01c-.224 0-.462.015-.509.043-.092.056-.063.117.069.146zM8.714 7.8c.07.04.204.073.307.08.158.01.206-.01.35-.092.207-.126.262-.212.08-.13a1.05 1.05 0 0 1-.859-.025l-.153-.075.077.083c.042.046.131.115.199.156zm-.039.506c.103.053.268.107.295.093.014.01.079 0 .133-.025.06-.025.163-.046.22-.08.093-.06.095-.063.015-.05-.285.042-.401.042-.588.01-.221-.047-.243-.03-.073.057zm-.59-.796c.229 0 .273-.01.274-.068 0-.03-.493-.07-.539-.044-.008.01-.002.032.015.06.018.032.107.05.247.053zm.155.973c.106-.038.136-.1.075-.146-.022-.018-.126-.036-.232-.043-.23-.01-.451-.016-.455.117-.009.07 0 .078.09.09zm-7.39.223c.619.073.674.073 1.057 0 .401-.073.523-.076 2.433-.065.481 0 .528 0 .468-.015-.04-.012-1.371-.024-2.01-.019-.35 0-.356-.015-.025-.07.454-.075.571-.08 1.643-.075l2.854.01c.201 0 .177.027.176-.101l-.002-.107-1.295-.01c-3.463.01-3.807 0-4.234-.08-.389-.073-.449-.073-1.045-.01a49.83 49.83 0 0 0-.654.075c-.022.01-.047.329-.028.369.005.01.303.054.662.096zM0 8.477l.003-.345c0-.036.183-.07.75-.142l.75-.095.426.1c.425.1.445.101 2.978.104 1.402 0 2.55 0 2.55-.01v-.425c0-.225.014-.425.029-.446.016-.02.235-.038.486-.04.478 0 .494.01.702.21.123.123.298.183.438.152.061-.015.227-.1.371-.192l.26-.169 1.695.01c.932.01 2.108.01 2.614.01.505 0 .994.011 1.086.023.1.013.235.066.336.133.147.095.188.14.315.352.171.285.22.475.21.803-.015.46-.19.847-.475 1.056-.207.15-.373.188-.85.19-1.081 0-4.84-.014-4.928-.02a.414.414 0 0 1-.207-.111c-.26-.246-.599-.314-.79-.158-.351.289-.294.27-.786.272-.34 0-.457-.012-.482-.053-.017-.03-.033-.235-.031-.456 0-.33-.01-.403-.055-.413a9.173 9.173 0 0 0-.699-.01c-.594 0-1.204 0-3.495-.01-.773 0-.909.01-1.284.093l-.421.095-.73-.095c-.401-.052-.737-.1-.747-.105a1.41 1.41 0 0 1-.016-.305zM8.294.42c-.03-.01-.054 0-.066.013-.028.029-.019.078.042.225.032.076.13.32.217.544.086.226.173.438.188.475.04.09.04.173.004.243a3.385 3.385 0 0 1-.427.487 2.258 2.258 0 0 1-.27.113c-.435.16-1.298.492-1.618.622-.022.01-.101.04-.175.068-.156.06-.181.076-.199.124-.024.057-.007.101.109.288.363.588.601 1.056.77 1.522.172.47.23.758.266 1.342.016.239.019.262.014.717a.5.5 0 0 1 .008-.042c.005-.025-.009-.046.066-.143 0 0 .05-.053.07-.068.02-.013.036-.025.05-.032a.307.307 0 0 1 .06-.023c-.007-.876-.043-1.137-.126-1.688-.02-.131.06.19.1.396.073.392.106.785.117 1.394 0 .025-.002-.15 0-.123.037-.01.075-.01.118-.013.1-.01.224-.012.356-.013.126 0 .224 0 .312.01 0-.345.005-.195.013-.409.043-.83.166-1.453.343-1.694.024-.036.02-.01-.036.17-.12.391-.168.684-.2 1.193-.017.268-.021.312-.021.757.047.01.093.01.14.02.026.01.044.028.068.037 0-.04-.006-.347-.005-.382.016-.76.093-1.03.244-1.43.133-.352.343-.744.865-1.61.296-.492.377-.695.404-1.015.023-.282-.087-.584-.331-.902a4.1 4.1 0 0 0-.51-.516c-.251-.21-.711-.538-.866-.62a.31.31 0 0 0-.095-.032zm-1.513.67c-.086.056-.2.283-.307.625-.116.367-.17.77-.166 1.214.002.088.006.164.01.168.005.01.119-.033.253-.086l.241-.093s.067-.031.08-.032c.053-.015.843-.322.843-.327 0 0-.071-.026-.16-.052l-.159-.046-.033-.084-.033-.084-.02-.046-.226-.564a10.865 10.865 0 0 0-.245-.584c-.024-.023-.05-.024-.08-.01zm2.943.814a.693.693 0 0 1 .043.109c.055.16.059.322.011.46a1.258 1.258 0 0 1-.075.172c-.053.093-.18.224-.288.301a2.973 2.973 0 0 1-.746.338c-.264.082-.27.08-.033-.023.698-.3.942-.503 1.068-.889a.79.79 0 0 0 .025-.415c-.013-.048-.013-.064-.005-.052zM8.038 3.276c.028.01.038.024.192.39.242.574.233.55.217.577-.01.017-.167.088-.563.257-.302.127-.557.232-.567.232-.014 0-.029-.01-.038-.016a9.187 9.187 0 0 1-.207-.471c-.146-.35-.187-.462-.18-.482.007-.021.103-.065.562-.259.406-.173.56-.232.584-.228zm-.126.12c.001-.02-.007-.02-.04 0-.019.01-.025.02-.019.026.014.012.06-.01.06-.029zm0 .033c-.005.01-.015.011-.025.016-.029.013-.004.024.026.011.025-.01.028-.013.018-.023-.007-.01-.016-.01-.02-.01zm.152.012c-.007-.013-.075.017-.075.033 0 .01.072.146.158.312.09.169.164.309.17.312.033.02.014-.04-.107-.325-.075-.176-.139-.325-.144-.332zm-.11.033c0-.013-.036-.01-.053.015-.008.01-.01.017-.006.02.008.01.06-.02.06-.033zm-.277.01c-.013 0-.03.01-.037.015-.016.016.003.027.031.018.034-.01.038-.038.005-.033zm.3.027c-.003-.01-.022 0-.04.01-.036.02-.03.037.007.025.029-.01.044-.023.034-.033zm-.11.01c-.004 0-.026.01-.053.02-.036.017-.046.027-.042.036l.163.312c.086.163.158.3.163.305.009.01.107-.034.103-.047a18.45 18.45 0 0 0-.334-.629zm-.149.013c-.01-.013-.056.01-.06.02-.004.02 0 .02.036 0 .017-.01.028-.02.023-.024zm.277.026c0-.012-.011-.01-.033 0-.038.02-.032.034.007.022.017-.01.026-.013.026-.023zm-.252.01c-.008-.01-.05.01-.063.017-.018.02.008.024.038.01.019-.01.03-.02.025-.023zm-.262.011c0-.013-.048 0-.064.017 0 0 .003.01.01.015.012.013.055-.01.055-.032zm.535.017c-.012-.01-.056.01-.06.023-.002.01.007.011.027.01.035-.01.043-.02.033-.029zm-.254.012c0-.013-.008-.012-.04.01-.015.011-.023.022-.02.027.01.01.06-.02.06-.033zm-.259.013c-.01-.01-.05.011-.06.026.004.01.012.01.027 0 .037-.012.046-.019.033-.029zm-.06.026h.004zm.22-.022c-.016-.017-.113.023-.105.042l.162.31.163.309c.01.012.102-.03.1-.044 0-.013-.305-.597-.321-.616zm.379.011c-.007-.01-.05 0-.062.016-.018.018.008.023.04.01.017-.01.027-.02.023-.023zm-.262.015c-.007 0-.02 0-.036.01-.023.01-.027.013-.017.023.007.01.016.01.02.01.004-.01.015-.012.025-.016.013-.01.016-.013.01-.015zm-.248.015c0-.013-.023-.01-.05.01-.014.01-.02.018-.016.022.009.01.068-.013.066-.026zm-.288.01c-.016.01-.033.013-.036.016-.014.013.02.027.04.016.033-.018.03-.043-.003-.033zm.82.01c.012-.013-.045 0-.057.012-.017.018.003.025.027.011.013-.01.027-.017.03-.022zm-.26.01c-.01-.01-.057.011-.06.026-.002.01.01.01.026.01.037-.01.046-.02.034-.03zm-.279.013c-.013.01-.028.012-.033.017-.015.016.006.022.035.01.035-.013.033-.037-.002-.027zm-.232.013c-.01-.01-.063.013-.063.027 0 .013.043.01.058-.01.007-.01.008-.015.004-.018zm.786.01c-.007 0-.02 0-.034.01-.024.01-.027.013-.018.023a.02.02 0 0 0 .019.01c.004-.01.015-.012.024-.017.014-.01.016-.013.01-.015zm-.63 0c-.014-.017-.112.023-.103.04l.161.312c.085.164.16.302.163.307.01.012.1-.029.1-.046 0-.013-.305-.595-.323-.613zm.385.015c0-.013-.027-.01-.054.01-.013.01-.02.017-.015.02.01.01.07-.013.07-.025zm-.266.013c0-.012-.033-.01-.048.01-.005.01-.007.013-.002.017.008.01.05-.012.05-.027zm-.25.01c-.007-.01-.06.011-.07.022-.012.013.019.017.042.01.033-.017.035-.02.027-.029zm.786 0c-.01-.01-.057.011-.06.027-.003.015.018.013.046 0 .016-.01.02-.017.016-.022zm-.28.013c-.013.01-.026.013-.03.017-.016.017.004.023.032.011.035-.015.033-.04 0-.028zm-.76 0c-.004-.016-.003-.016-.044 0-.027.011-.03.015-.02.024.013.013.068-.01.063-.026zm.527.013c-.01-.01-.063.013-.063.025 0 .013.046.01.06-.01.006-.01.006-.013.002-.018zm-.358.017c-.009-.01-.096.038-.095.05 0 .01.07.149.155.314.083.163.156.303.162.309.008.01.106-.022.107-.033 0-.01-.325-.634-.332-.637zm.104 0c.004-.013-.016-.013-.046.01-.014.01-.02.017-.014.022.01.01.057-.01.06-.026zm.795 0c0-.013-.027-.01-.054.01-.013.01-.02.016-.016.02.008.01.068-.013.068-.026zm-1.07.01c-.002.01-.016.013-.029.022-.023.015-.023.016.004.013.032-.01.053-.02.04-.033-.004-.01-.01-.01-.013 0zm.803.01c0-.012-.033-.01-.047.01-.006.01-.006.013-.002.017.01.01.051-.013.05-.027zm-.248.01c-.007-.01-.058.011-.068.02-.013.013.018.02.041.01.034-.016.036-.018.027-.027zm.507.013c-.013.01-.028.012-.033.017-.015.016.005.022.033.011.035-.015.033-.04 0-.029zm-.762 0c-.002-.01-.049.01-.063.02-.002 0-.001.01.003.01.012.011.066-.013.06-.029zm-.274.01c-.004.01-.017.013-.03.023-.024.016-.024.017.003.013.032-.01.053-.022.04-.033-.004-.01-.01-.01-.013 0zm.803.01c-.01-.01-.064.013-.063.027 0 .013.02.01.047-.01.014-.01.02-.015.016-.02zm-.255.02c.004-.013-.017-.013-.046 0-.013.01-.02.017-.013.022.009.01.056-.01.06-.026zm-.26.01c-.008-.01-.036 0-.054.022-.01.013-.008.013.013.01.033-.01.053-.022.043-.033zm.79.01c0-.013-.035-.01-.05.01-.005.01-.006.013-.002.018.009.01.053-.013.05-.026zm-.25.01c-.007-.01-.06.01-.07.02-.014.013.017.018.04.01.035-.016.038-.019.03-.026zm-.793 0c.003-.01-.048 0-.062.013-.003.01-.002.01.003.013.01.011.055-.01.06-.026zm-.119.01c-.007.01.042.138.125.335.074.178.14.324.146.327.004 0 .025-.01.044-.011l.033-.016-.156-.299-.169-.324c-.01-.017-.016-.02-.024-.013zm.657.01c-.002-.01-.05.01-.064.02-.002 0 0 .01.004.01.013.011.066-.015.062-.029zm-.792 0c-.029.04-.077.066-.196.11-.106.035-.263.074-.249.06.003-.01.06-.03.126-.055l.226-.093c.08-.033.106-.04.093-.023zm.533.011c-.007-.01-.06.01-.07.02-.01.01.015.017.036.01.029-.01.043-.022.033-.03zm.787 0c-.011-.01-.064.013-.063.027 0 .013.043.01.058-.01.007-.01.007-.013.005-.017zm-1.049.02c-.007-.01-.025 0-.038.01-.018.01-.02.013-.012.017.006 0 .024 0 .037-.01.018-.01.02-.013.012-.018zm.794 0c.003-.013-.017-.013-.047 0-.013.01-.018.017-.013.022.01.01.056-.01.06-.027zm-.261.01c-.008-.01-.036 0-.053.022-.011.012-.01.013.014.01.031-.01.052-.02.04-.032zm.54.013c-.006-.01-.06.01-.07.02-.012.013.018.018.042.01.033-.016.037-.019.028-.027zm-.793.01c.003-.013-.046-.01-.062.011-.004 0-.004.01 0 .013.014.012.058-.01.061-.023zm.511.01c-.004 0-.015.01-.024.013-.03.013-.004.025.026.013.025-.01.027-.013.017-.024-.006-.01-.015-.01-.02-.01zm-.763.01c-.009-.01-.05 0-.064.015-.018.02.007.024.038.01.019-.01.03-.02.025-.025zm.53.01c-.006-.01-.059.01-.069.02-.01.01.015.017.036.01.03-.01.043-.022.033-.03zm-.257.02c-.01-.01-.056.01-.06.021-.004.02 0 .02.035 0 .018-.01.029-.02.025-.023zm.792 0c.003-.013-.018-.013-.046.01-.015.01-.02.016-.015.021.01.01.057-.01.061-.025zm-1.064 0c-.003.01-.016.013-.03.023-.024.015-.024.015.004.011.033-.01.053-.02.04-.033-.004-.01-.01-.01-.014 0zm.803.01c-.01-.01-.036 0-.055.02-.01.013-.008.015.015.011.032-.01.052-.022.04-.033zm-.528.02c-.003.01-.015.013-.028.022-.033.02-.013.03.025.011.027-.01.03-.017.02-.026-.006-.01-.013-.01-.016-.01zm.276 0c.003-.013-.046-.01-.062.01-.004.01-.003.01.002.013.011.011.055-.01.06-.023zm.511 0c-.003 0-.015.013-.028.021-.033.02-.013.03.025.011.027-.013.03-.019.02-.027-.005-.01-.013-.01-.016-.01zm-.234.016c-.005-.01-.02 0-.04.01-.035.02-.03.037.007.025.03-.01.042-.023.033-.033zm-.793.01c0-.01-.036 0-.05.011-.006.01-.006.013-.003.018.007.01.051-.016.051-.029zm.535.01c-.01-.01-.056.01-.06.02-.003.02 0 .02.036 0 .017-.01.028-.02.024-.023zm-.254.01c0-.013-.01-.01-.041.01-.015.011-.022.02-.017.025.01.01.06-.02.06-.033zm.787 0c0-.013-.035-.01-.053.013-.007.01-.01.02-.007.022.01.01.06-.023.06-.037zm-1.042.016c.004-.018-.06.01-.065.024-.003.01.01.01.028 0 .018-.01.033-.019.035-.027zm.787 0c.002-.013-.047-.01-.063.01-.004 0-.002.01.002.013.01.011.055-.01.06-.023zm-.276 0c-.003 0-.016.012-.028.02-.035.02-.012.031.026.013.026-.013.03-.019.02-.028-.006-.01-.014-.01-.018-.01zm.554.017c-.005-.01-.023 0-.04.01-.037.02-.033.036.007.024.027-.01.041-.022.033-.033zm-.828.01c-.026.013-.03.02-.021.027.01.01.043 0 .063-.022.016-.017-.013-.02-.041-.01zm-.219.011c-.003-.01-.016-.01-.036.01-.015.01-.028.015-.03.016-.002 0 0 .01.004.011.004.01.022 0 .04-.01.02-.01.026-.02.023-.023zm.788 0c-.01-.01-.056.01-.06.022-.004.02 0 .018.035 0 .018-.01.029-.02.025-.022zm-.254.01c0-.013-.009-.01-.04.01-.016.01-.024.02-.02.025.01.01.06-.02.06-.033zm-.259.017c-.01-.01-.057.01-.06.026-.002.01.01.01.027 0 .036-.01.044-.017.033-.028zm.792 0c.003-.013-.046-.01-.062.01-.005.01-.004.01 0 .013.013.012.057-.01.061-.022zm-.254.011c-.006-.01-.05 0-.063.017-.016.02.009.023.04.01.019-.01.028-.02.024-.023zm-.783 0c0-.013-.05-.01-.064.01-.006.01-.008.013-.004.018.01.01.068-.015.067-.028zm.524.01c0-.01-.016-.01-.033.01-.026.012-.032.018-.023.027.013.011.056-.013.056-.03zm.535.015c-.011-.01-.057.01-.06.023-.003.011.004.013.022.011.029-.01.05-.022.038-.033zm-.785 0c0-.012-.048-.01-.062.011-.007.01-.009.013-.005.017.009.01.066-.013.066-.026zm.531.01c0-.013-.01-.01-.04.01-.016.01-.024.021-.02.027.01.01.06-.02.06-.034zm-.788 0c-.002-.01-.014 0-.036.01-.033.011-.035.013-.024.025.007.01.024.01.038-.01.018-.012.026-.02.023-.024zm.53.013c-.011-.01-.058.011-.062.027 0 .01.011.01.027 0 .038-.01.046-.018.035-.029zm-.28.013c-.014.01-.027.011-.034.016-.013.016.007.022.037.011.035-.013.033-.038-.002-.027zm-.233.015c-.009-.01-.062.012-.061.025 0 .013.018.011.046-.01.014-.01.02-.016.016-.02zm.788 0c-.007 0-.02 0-.035.01-.024.01-.026.013-.016.023.006.01.013.01.017.01.004-.01.016-.01.025-.016.013-.01.015-.013.008-.015zm-.246.016c0-.013-.026-.01-.053.01-.013.01-.02.015-.016.02.01.01.07-.015.07-.027zm-.276.01c-.015.01-.031.01-.037.015-.007.01-.007.013-.004.018.01.01.037 0 .055-.023.012-.01.01-.012-.013-.01zm-.239.015c-.007-.01-.058.01-.069.02-.012.013.017.018.04.01.035-.016.038-.018.03-.027zm.785 0c-.01-.01-.056.01-.06.025-.003.02.012.023.034.01.033-.02.036-.025.026-.033zm-.279.013c-.013.01-.027.013-.033.017-.014.015.006.021.035.01.034-.013.033-.04-.002-.028zm-.232.013c-.01-.01-.063.013-.063.025 0 .013.02.012.049-.01.013-.01.02-.017.016-.02zm-.255.013c-.003-.01-.05.01-.064.02h-.001c-.002.01 0 .01.004.01.012.011.065-.013.061-.029zm.529.018c0-.012-.034-.01-.047.01-.006.01-.006.015-.004.02.01.01.051-.013.051-.027zm-.25.01c-.007-.01-.06.01-.069.02-.011.013.019.017.043.01.033-.017.035-.02.026-.027zm-.28.011c-.013.01-.028.012-.033.017-.012.017.007.023.034.012.035-.013.034-.038 0-.027zm.558.02c-.012-.01-.067.01-.067.02 0 .02.011.02.044.01.026-.013.03-.017.022-.025zm-.26.011c-.001-.01-.048 0-.062.018-.002 0 0 .01.004.011.01.011.062-.015.06-.029zm-.258.011c-.009-.01-.037 0-.056.022-.011.011-.009.013.015.01.032-.01.052-.02.04-.032zm.257.025c-.006.01-.017.011-.027.016-.028.013-.003.025.027.013.025-.01.026-.013.018-.023-.007-.01-.016-.01-.02-.01zm-.233.013c-.006-.01-.06.011-.07.02-.01.011.014.02.036.013.026-.01.041-.022.033-.032zm.276.031c-.01-.01-.036-.01-.056.017-.017.017.002.025.033.013.039-.016.04-.018.025-.03zm-.255.018c.004-.013-.044-.01-.061.011-.003 0-.003.01.001.013.01.011.057-.01.06-.023zm.02.04c-.01-.01-.056.01-.06.021-.003.02 0 .02.036 0 .017-.01.028-.02.024-.023zm.005.03c-.004.01-.018.012-.03.02-.031.02-.01.036.025.02.015-.01.03-.016.031-.018.007-.01-.02-.028-.026-.022zm.329 3.218v.186c.107-.01.21-.011.302-.01h.006c.067 0 .13.01.19.02h.01v-.104c-.01-.01-.02-.012-.028-.02l-.03-.034c-.029 0-.063.01-.1.01l-.012.01h-.047c-.084 0-.16-.01-.235-.023-.013 0-.038-.033-.054-.034zm.778.833a.655.655 0 0 1-.176.15l.006.547c.034-.025.035-.022.142-.11.025-.02.053-.033.08-.05-.003-.244-.003-.341-.007-.518-.014-.01-.029-.01-.044-.019zm-.26.193h-.006l-.542.018c0 .01.005.017.006.023.014.1.014.202.014.371 0 .062.002.115.004.17.056 0 .085.01.176.01.248 0 .331-.01.338-.01 0 0 .015-.014.017-.014l-.002-.111-.007-.456zm-1.198.325a147.789 147.789 0 0 0-.06 4.608c0 1 .01 1.152.075 1.314a.938.938 0 0 0 .066.126c.21.312.676.436 1.025.27.32-.153.456-.41.462-.873.006-.594-.007-2.175-.047-4.442l-.003-.184c-.037.02-.068.047-.113.062-.041.013-.078.013-.115.021.002.352.004 1.046.006 1.221l.01 1.088c.005.425.013 1.152.02 1.618.01.813.009.851-.02.933a.571.571 0 0 1-1.11-.125c-.008-.066-.01-.727-.005-1.175.006-.527.02-1.259.054-2.887.004-.23.001-.509.007-.718a.365.365 0 0 1-.17-.146c-.08-.132-.051-.137-.057-.177-.007-.04-.01-.08-.014-.128a4.702 4.702 0 0 1-.01-.323c0-.05-.001-.049-.002-.086h-.002zm.353.896c-.049 2.6-.062 3.728-.06 4.194l.002.166.042-.053a.587.587 0 0 1 .414-.19c.161-.01.339.076.445.2l.053.06v-.122c.003-.9-.012-2.319-.038-4.234-.103.01-.21.01-.359.011-.175 0-.296 0-.398-.013-.033 0-.068-.013-.101-.02z"/>
</svg>
